<svg xmlns="http://www.w3.org/2000/svg" viewBox="0 0 399.08 164.42"><defs><style>.cls-1{fill:#7045b5;}.cls-2{fill:#fff;}</style></defs><g id="Layer_2" data-name="Layer 2"><g id="Layer_3" data-name="Layer 3"><polygon class="cls-1" points="383.71 137.91 373.07 110.2 388.95 110.2 399.08 137.91 389.03 164.42 373.16 164.42 383.71 137.91"/><polygon class="cls-1" points="357.7 137.91 347.06 110.2 362.94 110.2 373.07 137.91 363.02 164.42 347.14 164.42 357.7 137.91"/><polygon class="cls-1" points="331.69 137.91 321.05 110.2 336.93 110.2 347.06 137.91 337.01 164.42 321.13 164.42 331.69 137.91"/><path class="cls-2" d="M19.67,0H32.32V37.46q0,9-10.63,9H11q-10.63,0-10.63-9V0H13V35.79q0,1.59,1.8,1.59h3c1.2,0,1.81-.53,1.81-1.59Z"/><path class="cls-2" d="M50.76,37.38H65.15v9h-27V0H50.76Z"/><path class="cls-2" d="M96,0V9h-9V46.42H74.4V9H65.51V0Z"/><path class="cls-2" d="M99.28,0h12.65V46.42H99.28Z"/><path class="cls-2" d="M129,46.42H117.72V0h13.81l7.52,24.8L146.57,0h13.81V46.42H149.17V16.92l-5.78,19.45h-8.68L129,17.06Z"/><path class="cls-2" d="M189.81,46.42l-1.45-6.94H177.23l-1.52,6.94H163.27L175.2,0h15.4l11.93,46.42ZM179.18,30.51h7.23l-3.54-16.7Z"/><path class="cls-2" d="M233.41,0V9h-9V46.42H211.79V9H202.9V0Z"/><path class="cls-2" d="M249.32,37.38h15.83v9H236.66V0H264.5V9H249.32v9.47h13.09v9H249.32Z"/><path class="cls-2" d="M.36,103.47V57.05H13v46.42ZM26.25,79.76l9.11,23.71H21.76L13.09,79.76l8.6-22.71h13.6Z"/><path class="cls-2" d="M51.34,87v16.48H38.69V57.05H60.16q10.64,0,10.63,9V78q0,6.87-6.22,8.46l8.53,17H59.51L52.13,87Zm5-20.9h-5V78.38h5c1.2,0,1.81-.53,1.81-1.59V67.68C58.14,66.62,57.53,66.09,56.33,66.09Z"/><path class="cls-2" d="M75.85,57.05H88.51v46.42H75.85Z"/><path class="cls-2" d="M125.38,74.41H112.73V67c0-1.06-.6-1.59-1.81-1.59h-2.53c-1.21,0-1.81.53-1.81,1.59V93.57c0,1.06.6,1.59,1.81,1.59h2.53c1.21,0,1.81-.53,1.81-1.59V86.41h12.65v8.1q0,9-10.63,9H104.56q-10.64,0-10.63-9V66q0-9,10.63-9h10.19q10.64,0,10.63,9Z"/><path class="cls-2" d="M130.08,103.47V57.05h12.66v46.42ZM156,79.76l9.11,23.71H151.49l-8.68-23.71,8.6-22.71H165Z"/><path class="cls-2" d="M181.06,94.44H196.9v9H168.41V57.05h27.84v9H181.06v9.47h13.09v9H181.06Z"/><path class="cls-2" d="M228.86,57.05v9h-9v37.38H207.24V66.09h-8.9v-9Z"/><path class="cls-2" d="M31.45,131.46H18.8V124c0-1.06-.6-1.59-1.81-1.59H14.46c-1.2,0-1.81.53-1.81,1.59v26.61c0,1.06.61,1.59,1.81,1.59H17c1.21,0,1.81-.53,1.81-1.59v-7.16H31.45v8.1q0,9-10.63,9H10.63q-10.64,0-10.63-9V123.07q0-9,10.63-9H20.82q10.63,0,10.63,9Z"/><path class="cls-2" d="M57.7,114.1H70.14v46.43H57.7V142.16H48.59v18.37H36.15V114.1H48.59v19H57.7Z"/><path class="cls-2" d="M99.57,160.53l-1.45-6.95H87l-1.52,6.95H73L85,114.1h15.4l11.93,46.43ZM88.94,144.62h7.23l-3.54-16.71Z"/><path class="cls-2" d="M127.84,151.49h14.39v9h-27V114.1h12.65Z"/><path class="cls-2" d="M157.78,151.49h14.39v9h-27V114.1h12.66Z"/><path class="cls-2" d="M187.71,151.49h15.84v9H175.06V114.1H202.9v9H187.71v9.47H200.8v9H187.71Z"/><path class="cls-2" d="M228.71,114.1h11.57v46.43H229.43l-10.34-24.37v24.37H207.52V114.1h10.85l10.34,24.81Z"/><path class="cls-2" d="M277.23,130H264.57v-6q0-1.59-1.8-1.59h-2.61q-1.8,0-1.8,1.59v26.61q0,1.59,1.8,1.59h2.61q1.8,0,1.8-1.59v-7.74H261v-8h16.27v16.7q0,9-10.63,9H256.33q-10.63,0-10.63-9V123.07q0-9,10.63-9H266.6q10.63,0,10.63,9Z"/><path class="cls-2" d="M294.94,151.49h15.84v9H282.29V114.1h27.84v9H294.94v9.47H308v9H294.94Z"/></g></g></svg>